<svg width="24" height="25" viewBox="0 0 24 25" fill="none" xmlns="http://www.w3.org/2000/svg">
<path d="M20.9999 12.831C20.8426 14.5332 20.2038 16.1554 19.1581 17.5078C18.1125 18.8602 16.7034 19.8868 15.0956 20.4676C13.4878 21.0483 11.7479 21.1591 10.0794 20.7871C8.41092 20.4151 6.8829 19.5756 5.67413 18.3668C4.46536 17.158 3.62584 15.63 3.25381 13.9615C2.88178 12.293 2.99262 10.5531 3.57336 8.94531C4.15411 7.33752 5.18073 5.92838 6.53311 4.88277C7.8855 3.83716 9.5077 3.19832 11.2099 3.04102C10.2133 4.38928 9.73375 6.05046 9.85843 7.72243C9.98312 9.39439 10.7038 10.9661 11.8893 12.1516C13.0748 13.3372 14.6465 14.0578 16.3185 14.1825C17.9905 14.3072 19.6516 13.8276 20.9999 12.831Z" stroke="black" stroke-width="2" stroke-linecap="round" stroke-linejoin="round"/>
</svg>
