<svg width="24" height="25" viewBox="0 0 24 25" fill="none" xmlns="http://www.w3.org/2000/svg">
<g clip-path="url(#clip0_23_1923)">
<path d="M12 17.041C14.7614 17.041 17 14.8024 17 12.041C17 9.27959 14.7614 7.04102 12 7.04102C9.23858 7.04102 7 9.27959 7 12.041C7 14.8024 9.23858 17.041 12 17.041Z" stroke="black" stroke-width="2" stroke-linecap="round" stroke-linejoin="round"/>
<path d="M12 1.04102V3.04102" stroke="black" stroke-width="2" stroke-linecap="round" stroke-linejoin="round"/>
<path d="M12 21.041V23.041" stroke="black" stroke-width="2" stroke-linecap="round" stroke-linejoin="round"/>
<path d="M4.21973 4.26099L5.63973 5.68099" stroke="black" stroke-width="2" stroke-linecap="round" stroke-linejoin="round"/>
<path d="M18.3604 18.401L19.7804 19.821" stroke="black" stroke-width="2" stroke-linecap="round" stroke-linejoin="round"/>
<path d="M1 12.041H3" stroke="black" stroke-width="2" stroke-linecap="round" stroke-linejoin="round"/>
<path d="M21 12.041H23" stroke="black" stroke-width="2" stroke-linecap="round" stroke-linejoin="round"/>
<path d="M4.21973 19.821L5.63973 18.401" stroke="black" stroke-width="2" stroke-linecap="round" stroke-linejoin="round"/>
<path d="M18.3604 5.68099L19.7804 4.26099" stroke="black" stroke-width="2" stroke-linecap="round" stroke-linejoin="round"/>
</g>
<defs>
<clipPath id="clip0_23_1923">
<rect width="24" height="24" fill="white" transform="translate(0 0.0410156)"/>
</clipPath>
</defs>
</svg>
