<svg width="744" height="191" viewBox="0 0 744 191" fill="none" xmlns="http://www.w3.org/2000/svg">
<path d="M216.91 0.826966C173.563 1.13687 138.107 49.3129 138.107 91.3335C138.107 135.553 164.098 189.494 216.91 189.319C269.721 189.144 297.132 131.072 297.132 91.3335C297.132 47.4392 260.256 0.517068 216.91 0.826966ZM216.91 2.47516C253.189 2.47516 262.976 42.5427 262.976 91.3335C262.976 155.712 251.17 187.473 216.91 187.413C182.649 187.352 171.504 161.357 171.504 91.3335C171.504 47.4693 180.63 2.47516 216.91 2.47516Z" fill="white"/>
<path d="M311.445 92.5215C311.251 44.7087 349.518 2.3557 381.911 0.254366C393.612 -0.5746 408.653 4.78369 417.434 8.60072C423.81 11.3725 436.826 7.36047 439.138 0H440.398V65.1302H439.138C439.138 62.3536 427.076 1.89185 381.911 1.89185C348.551 1.89185 345.329 60.5509 345.329 92.5215C345.329 124.492 346.301 187.783 385.23 187.783C404.089 187.783 418.048 179.532 421.667 162.841V112.088H405.837V109.926H467.195V112.088H452.061V186.288H450.829C450.829 186.288 448.369 175.582 435.884 175.618C419.928 175.663 404.879 189.526 386.536 189.358C338.023 188.911 311.639 140.334 311.445 92.5215Z" fill="white"/>
<path d="M19.1049 7.24233H0V5.09479H66.9253V7.24233H50.1354L97.9553 137.106C112.909 91.0689 124.493 57.0384 140.082 7.24233H123.475V5.09479H158.812V7.24233H142.72L84.5995 188.427L19.1049 7.24233Z" fill="white"/>
<path d="M476.565 144.068L476.262 7.03376H458.077V4.98108H525.074V7.03376H506.9L507.303 157.285C511.327 174.49 518.48 187.545 542.918 187.739C567.357 187.933 583.971 173.282 590.145 153.259V7.03376H569.343L569.342 5.04155H739.61L739.964 70.8236H738.328C735.17 28.3506 718.781 12.2988 690.12 7.61598C680.257 6.00458 669.91 7.19913 656.83 7.09745V91.0528C668.221 91.9327 680.353 91.2128 688.529 84.1903C695.964 77.8044 698.066 63.0502 698.613 57.0562H700.052V130.155H698.494C698.044 130.155 697.446 111.811 688.529 103.108C679.554 94.3483 668.125 92.1945 656.83 94.2816V183.964C672.784 183.964 685.502 185.316 696.546 182.288C730.117 173.084 741.935 144.762 741.844 116.355H743.711V186.087H610.157V183.964H625.258V7.03376H592.632V153.259C588.934 167.25 575.418 190.397 540.781 190.239C508.576 190.092 476.634 175.573 476.565 144.068Z" fill="white"/>
</svg>
