<svg width="754" height="200" viewBox="0 0 754 200" fill="none" xmlns="http://www.w3.org/2000/svg">
<path d="M221.79 5.70715C178.444 6.01706 142.988 54.1931 142.988 96.2137C142.988 140.433 168.978 194.374 221.79 194.199C274.601 194.024 302.012 135.952 302.012 96.2137C302.012 52.3194 265.136 5.39726 221.79 5.70715ZM221.79 7.35534C258.069 7.35534 267.857 47.4229 267.857 96.2137C267.857 160.592 256.05 192.353 221.79 192.293C187.53 192.232 176.384 166.237 176.384 96.2137C176.384 52.3495 185.511 7.35534 221.79 7.35534Z" fill="#D9D9D9"/>
<path d="M316.325 97.4018C316.131 49.5889 354.398 7.23592 386.792 5.13458C398.493 4.30562 413.533 9.6639 422.314 13.4809C428.69 16.2527 441.707 12.2407 444.018 4.88022H445.278V70.0104H444.018C444.018 67.2338 431.956 6.77206 386.792 6.77206C353.432 6.77206 350.209 65.4311 350.209 97.4018C350.209 129.372 351.181 192.663 390.111 192.663C408.969 192.663 422.928 184.413 426.547 167.721V116.968H410.718V114.806H472.075V116.968H456.942V191.169H455.709C455.709 191.169 453.249 180.462 440.764 180.498C424.808 180.544 409.76 194.407 391.416 194.238C342.904 193.792 316.52 145.215 316.325 97.4018Z" fill="#D9D9D9"/>
<path d="M23.9852 12.1226H4.88037V9.97504H71.8057V12.1226H55.0157L102.836 141.986C117.789 95.9492 129.373 61.9186 144.962 12.1226H128.355V9.97504H163.692V12.1226H147.6L89.4799 193.307L23.9852 12.1226Z" fill="#D9D9D9"/>
<path d="M481.445 148.948L481.142 11.914H462.958V9.8613H529.955V11.914H511.78L512.184 162.165C516.207 179.37 523.36 192.425 547.799 192.619C572.237 192.813 588.851 178.162 595.026 158.14V11.914H574.223L574.223 9.92177H744.49L744.845 75.7039H743.208C740.05 33.2308 723.662 17.1791 695 12.4962C685.137 10.8848 674.791 12.0793 661.711 11.9777V95.933C673.101 96.8129 685.234 96.093 693.41 89.0705C700.845 82.6846 702.947 67.9304 703.493 61.9365H704.933V135.035H703.375C702.925 135.035 702.327 116.691 693.41 107.989C684.435 99.2285 673.006 97.0747 661.711 99.1618V188.844C677.665 188.844 690.382 190.196 701.426 187.168C734.997 177.964 746.815 149.642 746.725 121.236H748.592V190.968H615.038V188.844H630.139V11.914H597.512V158.14C593.814 172.131 580.298 195.277 545.661 195.119C513.456 194.972 481.514 180.453 481.445 148.948Z" fill="#D9D9D9"/>
</svg>
